<svg xmlns="http://www.w3.org/2000/svg" xmlns:xlink="http://www.w3.org/1999/xlink" width="205" height="187" viewBox="0 0 205 187"><defs><clipPath id="a"><rect width="205" height="187" fill="none"/></clipPath></defs><g opacity="0.17" clip-path="url(#a)"><g transform="translate(-168 -864)"><circle cx="3.5" cy="3.5" r="3.5" transform="translate(168 866)" fill="#2b3a42"/></g><g transform="translate(-152 -864)"><circle cx="3.5" cy="3.5" r="3.5" transform="translate(168 866)" fill="#2b3a42"/></g><g transform="translate(-136 -864)"><circle cx="3.5" cy="3.5" r="3.5" transform="translate(168 866)" fill="#2b3a42"/></g><g transform="translate(-120 -864)"><circle cx="3.5" cy="3.5" r="3.5" transform="translate(168 866)" fill="#2b3a42"/></g><g transform="translate(-104 -864)"><circle cx="3.5" cy="3.5" r="3.5" transform="translate(168 866)" fill="#2b3a42"/></g><g transform="translate(-88 -864)"><circle cx="3.5" cy="3.5" r="3.5" transform="translate(168 866)" fill="#2b3a42"/></g><g transform="translate(-72 -864)"><circle cx="3.5" cy="3.5" r="3.5" transform="translate(168 866)" fill="#2b3a42"/></g><g transform="translate(-56 -864)"><circle cx="3.5" cy="3.5" r="3.5" transform="translate(168 866)" fill="#2b3a42"/></g><g transform="translate(-40 -864)"><circle cx="3.5" cy="3.5" r="3.5" transform="translate(168 866)" fill="#2b3a42"/></g><g transform="translate(-24 -864)"><circle cx="3.5" cy="3.5" r="3.5" transform="translate(168 866)" fill="#2b3a42"/></g><g transform="translate(-8 -864)"><circle cx="3.5" cy="3.5" r="3.5" transform="translate(168 866)" fill="#2b3a42"/></g><g transform="translate(8 -864)"><circle cx="3.5" cy="3.5" r="3.5" transform="translate(168 866)" fill="#2b3a42"/></g><g transform="translate(24 -864)"><circle cx="3.5" cy="3.5" r="3.5" transform="translate(168 866)" fill="#2b3a42"/></g><g transform="translate(-168 -848)"><circle cx="3.5" cy="3.5" r="3.5" transform="translate(168 866)" fill="#2b3a42"/></g><g transform="translate(-152 -848)"><circle cx="3.5" cy="3.5" r="3.5" transform="translate(168 866)" fill="#2b3a42"/></g><g transform="translate(-136 -848)"><circle cx="3.5" cy="3.5" r="3.5" transform="translate(168 866)" fill="#2b3a42"/></g><g transform="translate(-120 -848)"><circle cx="3.5" cy="3.5" r="3.5" transform="translate(168 866)" fill="#2b3a42"/></g><g transform="translate(-104 -848)"><circle cx="3.5" cy="3.5" r="3.5" transform="translate(168 866)" fill="#2b3a42"/></g><g transform="translate(-88 -848)"><circle cx="3.5" cy="3.5" r="3.5" transform="translate(168 866)" fill="#2b3a42"/></g><g transform="translate(-72 -848)"><circle cx="3.5" cy="3.5" r="3.5" transform="translate(168 866)" fill="#2b3a42"/></g><g transform="translate(-56 -848)"><circle cx="3.5" cy="3.5" r="3.5" transform="translate(168 866)" fill="#2b3a42"/></g><g transform="translate(-40 -848)"><circle cx="3.5" cy="3.5" r="3.5" transform="translate(168 866)" fill="#2b3a42"/></g><g transform="translate(-24 -848)"><circle cx="3.5" cy="3.5" r="3.5" transform="translate(168 866)" fill="#2b3a42"/></g><g transform="translate(-8 -848)"><circle cx="3.5" cy="3.5" r="3.5" transform="translate(168 866)" fill="#2b3a42"/></g><g transform="translate(8 -848)"><circle cx="3.5" cy="3.5" r="3.5" transform="translate(168 866)" fill="#2b3a42"/></g><g transform="translate(24 -848)"><circle cx="3.5" cy="3.5" r="3.5" transform="translate(168 866)" fill="#2b3a42"/></g><g transform="translate(-168 -832)"><circle cx="3.5" cy="3.5" r="3.5" transform="translate(168 866)" fill="#2b3a42"/></g><g transform="translate(-152 -832)"><circle cx="3.5" cy="3.5" r="3.5" transform="translate(168 866)" fill="#2b3a42"/></g><g transform="translate(-136 -832)"><circle cx="3.5" cy="3.5" r="3.5" transform="translate(168 866)" fill="#2b3a42"/></g><g transform="translate(-120 -832)"><circle cx="3.5" cy="3.5" r="3.5" transform="translate(168 866)" fill="#2b3a42"/></g><g transform="translate(-104 -832)"><circle cx="3.5" cy="3.5" r="3.5" transform="translate(168 866)" fill="#2b3a42"/></g><g transform="translate(-88 -832)"><circle cx="3.5" cy="3.5" r="3.5" transform="translate(168 866)" fill="#2b3a42"/></g><g transform="translate(-72 -832)"><circle cx="3.5" cy="3.5" r="3.5" transform="translate(168 866)" fill="#2b3a42"/></g><g transform="translate(-56 -832)"><circle cx="3.5" cy="3.5" r="3.5" transform="translate(168 866)" fill="#2b3a42"/></g><g transform="translate(-40 -832)"><circle cx="3.5" cy="3.5" r="3.5" transform="translate(168 866)" fill="#2b3a42"/></g><g transform="translate(-24 -832)"><circle cx="3.5" cy="3.5" r="3.5" transform="translate(168 866)" fill="#2b3a42"/></g><g transform="translate(-8 -832)"><circle cx="3.5" cy="3.5" r="3.5" transform="translate(168 866)" fill="#2b3a42"/></g><g transform="translate(8 -832)"><circle cx="3.5" cy="3.5" r="3.5" transform="translate(168 866)" fill="#2b3a42"/></g><g transform="translate(24 -832)"><circle cx="3.5" cy="3.5" r="3.5" transform="translate(168 866)" fill="#2b3a42"/></g><g transform="translate(-168 -816)"><circle cx="3.5" cy="3.5" r="3.5" transform="translate(168 866)" fill="#2b3a42"/></g><g transform="translate(-152 -816)"><circle cx="3.5" cy="3.5" r="3.5" transform="translate(168 866)" fill="#2b3a42"/></g><g transform="translate(-136 -816)"><circle cx="3.5" cy="3.5" r="3.5" transform="translate(168 866)" fill="#2b3a42"/></g><g transform="translate(-120 -816)"><circle cx="3.5" cy="3.5" r="3.5" transform="translate(168 866)" fill="#2b3a42"/></g><g transform="translate(-104 -816)"><circle cx="3.5" cy="3.5" r="3.5" transform="translate(168 866)" fill="#2b3a42"/></g><g transform="translate(-88 -816)"><circle cx="3.5" cy="3.5" r="3.5" transform="translate(168 866)" fill="#2b3a42"/></g><g transform="translate(-72 -816)"><circle cx="3.5" cy="3.5" r="3.5" transform="translate(168 866)" fill="#2b3a42"/></g><g transform="translate(-56 -816)"><circle cx="3.5" cy="3.5" r="3.5" transform="translate(168 866)" fill="#2b3a42"/></g><g transform="translate(-40 -816)"><circle cx="3.5" cy="3.5" r="3.5" transform="translate(168 866)" fill="#2b3a42"/></g><g transform="translate(-24 -816)"><circle cx="3.5" cy="3.5" r="3.5" transform="translate(168 866)" fill="#2b3a42"/></g><g transform="translate(-8 -816)"><circle cx="3.5" cy="3.5" r="3.5" transform="translate(168 866)" fill="#2b3a42"/></g><g transform="translate(8 -816)"><circle cx="3.5" cy="3.5" r="3.5" transform="translate(168 866)" fill="#2b3a42"/></g><g transform="translate(24 -816)"><circle cx="3.5" cy="3.5" r="3.5" transform="translate(168 866)" fill="#2b3a42"/></g><g transform="translate(-168 -800)"><circle cx="3.5" cy="3.5" r="3.5" transform="translate(168 866)" fill="#2b3a42"/></g><g transform="translate(-152 -800)"><circle cx="3.5" cy="3.5" r="3.5" transform="translate(168 866)" fill="#2b3a42"/></g><g transform="translate(-136 -800)"><circle cx="3.5" cy="3.5" r="3.5" transform="translate(168 866)" fill="#2b3a42"/></g><g transform="translate(-120 -800)"><circle cx="3.5" cy="3.5" r="3.5" transform="translate(168 866)" fill="#2b3a42"/></g><g transform="translate(-104 -800)"><circle cx="3.5" cy="3.5" r="3.5" transform="translate(168 866)" fill="#2b3a42"/></g><g transform="translate(-88 -800)"><circle cx="3.5" cy="3.5" r="3.5" transform="translate(168 866)" fill="#2b3a42"/></g><g transform="translate(-72 -800)"><circle cx="3.5" cy="3.5" r="3.5" transform="translate(168 866)" fill="#2b3a42"/></g><g transform="translate(-56 -800)"><circle cx="3.5" cy="3.5" r="3.5" transform="translate(168 866)" fill="#2b3a42"/></g><g transform="translate(-40 -800)"><circle cx="3.5" cy="3.5" r="3.5" transform="translate(168 866)" fill="#2b3a42"/></g><g transform="translate(-24 -800)"><circle cx="3.5" cy="3.5" r="3.5" transform="translate(168 866)" fill="#2b3a42"/></g><g transform="translate(-8 -800)"><circle cx="3.5" cy="3.5" r="3.5" transform="translate(168 866)" fill="#2b3a42"/></g><g transform="translate(8 -800)"><circle cx="3.5" cy="3.5" r="3.5" transform="translate(168 866)" fill="#2b3a42"/></g><g transform="translate(24 -800)"><circle cx="3.5" cy="3.5" r="3.5" transform="translate(168 866)" fill="#2b3a42"/></g><g transform="translate(-168 -784)"><circle cx="3.5" cy="3.5" r="3.5" transform="translate(168 866)" fill="#2b3a42"/></g><g transform="translate(-152 -784)"><circle cx="3.5" cy="3.5" r="3.5" transform="translate(168 866)" fill="#2b3a42"/></g><g transform="translate(-136 -784)"><circle cx="3.5" cy="3.5" r="3.5" transform="translate(168 866)" fill="#2b3a42"/></g><g transform="translate(-120 -784)"><circle cx="3.5" cy="3.5" r="3.5" transform="translate(168 866)" fill="#2b3a42"/></g><g transform="translate(-104 -784)"><circle cx="3.5" cy="3.5" r="3.5" transform="translate(168 866)" fill="#2b3a42"/></g><g transform="translate(-88 -784)"><circle cx="3.5" cy="3.5" r="3.5" transform="translate(168 866)" fill="#2b3a42"/></g><g transform="translate(-72 -784)"><circle cx="3.5" cy="3.5" r="3.5" transform="translate(168 866)" fill="#2b3a42"/></g><g transform="translate(-56 -784)"><circle cx="3.5" cy="3.5" r="3.5" transform="translate(168 866)" fill="#2b3a42"/></g><g transform="translate(-40 -784)"><circle cx="3.5" cy="3.5" r="3.5" transform="translate(168 866)" fill="#2b3a42"/></g><g transform="translate(-24 -784)"><circle cx="3.5" cy="3.5" r="3.5" transform="translate(168 866)" fill="#2b3a42"/></g><g transform="translate(-8 -784)"><circle cx="3.5" cy="3.5" r="3.5" transform="translate(168 866)" fill="#2b3a42"/></g><g transform="translate(8 -784)"><circle cx="3.5" cy="3.5" r="3.5" transform="translate(168 866)" fill="#2b3a42"/></g><g transform="translate(24 -784)"><circle cx="3.5" cy="3.5" r="3.5" transform="translate(168 866)" fill="#2b3a42"/></g><g transform="translate(-168 -768)"><circle cx="3.5" cy="3.5" r="3.5" transform="translate(168 866)" fill="#2b3a42"/></g><g transform="translate(-152 -768)"><circle cx="3.5" cy="3.5" r="3.5" transform="translate(168 866)" fill="#2b3a42"/></g><g transform="translate(-136 -768)"><circle cx="3.5" cy="3.5" r="3.5" transform="translate(168 866)" fill="#2b3a42"/></g><g transform="translate(-120 -768)"><circle cx="3.5" cy="3.5" r="3.5" transform="translate(168 866)" fill="#2b3a42"/></g><g transform="translate(-104 -768)"><circle cx="3.5" cy="3.5" r="3.5" transform="translate(168 866)" fill="#2b3a42"/></g><g transform="translate(-88 -768)"><circle cx="3.5" cy="3.5" r="3.5" transform="translate(168 866)" fill="#2b3a42"/></g><g transform="translate(-72 -768)"><circle cx="3.5" cy="3.5" r="3.5" transform="translate(168 866)" fill="#2b3a42"/></g><g transform="translate(-56 -768)"><circle cx="3.5" cy="3.5" r="3.5" transform="translate(168 866)" fill="#2b3a42"/></g><g transform="translate(-40 -768)"><circle cx="3.5" cy="3.5" r="3.5" transform="translate(168 866)" fill="#2b3a42"/></g><g transform="translate(-24 -768)"><circle cx="3.5" cy="3.5" r="3.5" transform="translate(168 866)" fill="#2b3a42"/></g><g transform="translate(-8 -768)"><circle cx="3.5" cy="3.5" r="3.5" transform="translate(168 866)" fill="#2b3a42"/></g><g transform="translate(8 -768)"><circle cx="3.5" cy="3.5" r="3.5" transform="translate(168 866)" fill="#2b3a42"/></g><g transform="translate(24 -768)"><circle cx="3.5" cy="3.5" r="3.5" transform="translate(168 866)" fill="#2b3a42"/></g><g transform="translate(-168 -752)"><circle cx="3.5" cy="3.5" r="3.5" transform="translate(168 866)" fill="#2b3a42"/></g><g transform="translate(-152 -752)"><circle cx="3.5" cy="3.5" r="3.5" transform="translate(168 866)" fill="#2b3a42"/></g><g transform="translate(-136 -752)"><circle cx="3.5" cy="3.5" r="3.5" transform="translate(168 866)" fill="#2b3a42"/></g><g transform="translate(-120 -752)"><circle cx="3.5" cy="3.5" r="3.5" transform="translate(168 866)" fill="#2b3a42"/></g><g transform="translate(-104 -752)"><circle cx="3.5" cy="3.5" r="3.5" transform="translate(168 866)" fill="#2b3a42"/></g><g transform="translate(-88 -752)"><circle cx="3.5" cy="3.5" r="3.5" transform="translate(168 866)" fill="#2b3a42"/></g><g transform="translate(-72 -752)"><circle cx="3.5" cy="3.5" r="3.5" transform="translate(168 866)" fill="#2b3a42"/></g><g transform="translate(-56 -752)"><circle cx="3.5" cy="3.5" r="3.5" transform="translate(168 866)" fill="#2b3a42"/></g><g transform="translate(-40 -752)"><circle cx="3.5" cy="3.5" r="3.5" transform="translate(168 866)" fill="#2b3a42"/></g><g transform="translate(-24 -752)"><circle cx="3.5" cy="3.5" r="3.5" transform="translate(168 866)" fill="#2b3a42"/></g><g transform="translate(-8 -752)"><circle cx="3.5" cy="3.5" r="3.5" transform="translate(168 866)" fill="#2b3a42"/></g><g transform="translate(8 -752)"><circle cx="3.5" cy="3.5" r="3.5" transform="translate(168 866)" fill="#2b3a42"/></g><g transform="translate(24 -752)"><circle cx="3.5" cy="3.5" r="3.5" transform="translate(168 866)" fill="#2b3a42"/></g><g transform="translate(-168 -736)"><circle cx="3.5" cy="3.5" r="3.5" transform="translate(168 866)" fill="#2b3a42"/></g><g transform="translate(-152 -736)"><circle cx="3.5" cy="3.5" r="3.5" transform="translate(168 866)" fill="#2b3a42"/></g><g transform="translate(-136 -736)"><circle cx="3.5" cy="3.5" r="3.5" transform="translate(168 866)" fill="#2b3a42"/></g><g transform="translate(-120 -736)"><circle cx="3.5" cy="3.5" r="3.5" transform="translate(168 866)" fill="#2b3a42"/></g><g transform="translate(-104 -736)"><circle cx="3.5" cy="3.5" r="3.5" transform="translate(168 866)" fill="#2b3a42"/></g><g transform="translate(-88 -736)"><circle cx="3.5" cy="3.5" r="3.5" transform="translate(168 866)" fill="#2b3a42"/></g><g transform="translate(-72 -736)"><circle cx="3.5" cy="3.5" r="3.5" transform="translate(168 866)" fill="#2b3a42"/></g><g transform="translate(-56 -736)"><circle cx="3.5" cy="3.5" r="3.5" transform="translate(168 866)" fill="#2b3a42"/></g><g transform="translate(-40 -736)"><circle cx="3.5" cy="3.5" r="3.5" transform="translate(168 866)" fill="#2b3a42"/></g><g transform="translate(-24 -736)"><circle cx="3.5" cy="3.5" r="3.5" transform="translate(168 866)" fill="#2b3a42"/></g><g transform="translate(-8 -736)"><circle cx="3.5" cy="3.5" r="3.5" transform="translate(168 866)" fill="#2b3a42"/></g><g transform="translate(8 -736)"><circle cx="3.5" cy="3.5" r="3.5" transform="translate(168 866)" fill="#2b3a42"/></g><g transform="translate(24 -736)"><circle cx="3.5" cy="3.5" r="3.5" transform="translate(168 866)" fill="#2b3a42"/></g><g transform="translate(-168 -720)"><circle cx="3.5" cy="3.5" r="3.5" transform="translate(168 866)" fill="#2b3a42"/></g><g transform="translate(-152 -720)"><circle cx="3.5" cy="3.5" r="3.5" transform="translate(168 866)" fill="#2b3a42"/></g><g transform="translate(-136 -720)"><circle cx="3.5" cy="3.5" r="3.5" transform="translate(168 866)" fill="#2b3a42"/></g><g transform="translate(-120 -720)"><circle cx="3.5" cy="3.5" r="3.5" transform="translate(168 866)" fill="#2b3a42"/></g><g transform="translate(-104 -720)"><circle cx="3.5" cy="3.5" r="3.5" transform="translate(168 866)" fill="#2b3a42"/></g><g transform="translate(-88 -720)"><circle cx="3.5" cy="3.5" r="3.5" transform="translate(168 866)" fill="#2b3a42"/></g><g transform="translate(-72 -720)"><circle cx="3.5" cy="3.5" r="3.5" transform="translate(168 866)" fill="#2b3a42"/></g><g transform="translate(-56 -720)"><circle cx="3.5" cy="3.5" r="3.5" transform="translate(168 866)" fill="#2b3a42"/></g><g transform="translate(-40 -720)"><circle cx="3.5" cy="3.5" r="3.5" transform="translate(168 866)" fill="#2b3a42"/></g><g transform="translate(-24 -720)"><circle cx="3.5" cy="3.5" r="3.5" transform="translate(168 866)" fill="#2b3a42"/></g><g transform="translate(-8 -720)"><circle cx="3.5" cy="3.5" r="3.5" transform="translate(168 866)" fill="#2b3a42"/></g><g transform="translate(8 -720)"><circle cx="3.5" cy="3.5" r="3.5" transform="translate(168 866)" fill="#2b3a42"/></g><g transform="translate(24 -720)"><circle cx="3.5" cy="3.5" r="3.5" transform="translate(168 866)" fill="#2b3a42"/></g><g transform="translate(-168 -704)"><circle cx="3.5" cy="3.5" r="3.5" transform="translate(168 866)" fill="#2b3a42"/></g><g transform="translate(-152 -704)"><circle cx="3.5" cy="3.5" r="3.5" transform="translate(168 866)" fill="#2b3a42"/></g><g transform="translate(-136 -704)"><circle cx="3.5" cy="3.5" r="3.5" transform="translate(168 866)" fill="#2b3a42"/></g><g transform="translate(-120 -704)"><circle cx="3.5" cy="3.5" r="3.5" transform="translate(168 866)" fill="#2b3a42"/></g><g transform="translate(-104 -704)"><circle cx="3.5" cy="3.5" r="3.5" transform="translate(168 866)" fill="#2b3a42"/></g><g transform="translate(-88 -704)"><circle cx="3.5" cy="3.5" r="3.5" transform="translate(168 866)" fill="#2b3a42"/></g><g transform="translate(-72 -704)"><circle cx="3.5" cy="3.5" r="3.5" transform="translate(168 866)" fill="#2b3a42"/></g><g transform="translate(-56 -704)"><circle cx="3.5" cy="3.5" r="3.5" transform="translate(168 866)" fill="#2b3a42"/></g><g transform="translate(-40 -704)"><circle cx="3.5" cy="3.5" r="3.5" transform="translate(168 866)" fill="#2b3a42"/></g><g transform="translate(-24 -704)"><circle cx="3.5" cy="3.5" r="3.5" transform="translate(168 866)" fill="#2b3a42"/></g><g transform="translate(-8 -704)"><circle cx="3.5" cy="3.5" r="3.5" transform="translate(168 866)" fill="#2b3a42"/></g><g transform="translate(8 -704)"><circle cx="3.5" cy="3.5" r="3.5" transform="translate(168 866)" fill="#2b3a42"/></g><g transform="translate(24 -704)"><circle cx="3.5" cy="3.5" r="3.5" transform="translate(168 866)" fill="#2b3a42"/></g><g transform="translate(-168 -688)"><circle cx="3.5" cy="3.5" r="3.5" transform="translate(168 866)" fill="#2b3a42"/></g><g transform="translate(-152 -688)"><circle cx="3.5" cy="3.5" r="3.5" transform="translate(168 866)" fill="#2b3a42"/></g><g transform="translate(-136 -688)"><circle cx="3.5" cy="3.5" r="3.5" transform="translate(168 866)" fill="#2b3a42"/></g><g transform="translate(-120 -688)"><circle cx="3.5" cy="3.5" r="3.5" transform="translate(168 866)" fill="#2b3a42"/></g><g transform="translate(-104 -688)"><circle cx="3.5" cy="3.5" r="3.5" transform="translate(168 866)" fill="#2b3a42"/></g><g transform="translate(-88 -688)"><circle cx="3.5" cy="3.5" r="3.5" transform="translate(168 866)" fill="#2b3a42"/></g><g transform="translate(-72 -688)"><circle cx="3.5" cy="3.5" r="3.5" transform="translate(168 866)" fill="#2b3a42"/></g><g transform="translate(-56 -688)"><circle cx="3.5" cy="3.5" r="3.5" transform="translate(168 866)" fill="#2b3a42"/></g><g transform="translate(-40 -688)"><circle cx="3.5" cy="3.5" r="3.5" transform="translate(168 866)" fill="#2b3a42"/></g><g transform="translate(-24 -688)"><circle cx="3.5" cy="3.5" r="3.5" transform="translate(168 866)" fill="#2b3a42"/></g><g transform="translate(-8 -688)"><circle cx="3.5" cy="3.5" r="3.5" transform="translate(168 866)" fill="#2b3a42"/></g><g transform="translate(8 -688)"><circle cx="3.5" cy="3.5" r="3.5" transform="translate(168 866)" fill="#2b3a42"/></g><g transform="translate(24 -688)"><circle cx="3.5" cy="3.5" r="3.5" transform="translate(168 866)" fill="#2b3a42"/></g></g></svg>